<svg xmlns="http://www.w3.org/2000/svg" xmlns:xlink="http://www.w3.org/1999/xlink" version="1.1" xml:space="preserve" viewBox="171.45 146.97 303.1 303.1"><desc>Created with Fabric.js 4.6.0</desc><defs></defs><g transform="matrix(2.96 0 0 2.96 323 298.52)" id="SlZu_4huquy2SsWLNmf59"><path style="stroke: rgb(66,127,241); stroke-width: 0; stroke-dasharray: none; stroke-linecap: butt; stroke-dashoffset: 0; stroke-linejoin: miter; stroke-miterlimit: 4; fill: rgb(255,255,255); fill-rule: nonzero; opacity: 1;" vector-effect="non-scaling-stroke" transform=" translate(0, 0)" d="M -51.2 -29.47768 C -51.2 -41.47459 -41.474590000000006 -51.2 -29.477680000000003 -51.2 L 29.477679999999996 -51.2 L 29.477679999999996 -51.2 C 41.47458999999999 -51.2 51.199999999999996 -41.474590000000006 51.199999999999996 -29.477680000000003 L 51.199999999999996 29.477679999999996 L 51.199999999999996 29.477679999999996 C 51.199999999999996 41.47458999999999 41.47458999999999 51.199999999999996 29.477679999999996 51.199999999999996 L -29.477680000000003 51.199999999999996 L -29.477680000000003 51.199999999999996 C -41.474590000000006 51.199999999999996 -51.2 41.47458999999999 -51.2 29.477679999999996 z" stroke-linecap="round"></path></g><g transform="matrix(1 0 0 1 319.94 293.07)" id="uGjVonvLAxaMO_hSrUOvk"><linearGradient id="SVGID_218_0" gradientUnits="userSpaceOnUse" gradientTransform="matrix(1 0 0 1 0 0)" x1="0" y1="139.41504999999995" x2="277.1100199999999" y2="139.41504999999995"><stop offset="0%" style="stop-color:rgb(56, 91, 199);stop-opacity: 1"/>
<stop offset="100%" style="stop-color:rgb(108,132,204);stop-opacity: 1"/></linearGradient><path style="stroke: none; stroke-width: 1; stroke-dasharray: none; stroke-linecap: butt; stroke-dashoffset: 0; stroke-linejoin: miter; stroke-miterlimit: 4; fill: url(#SVGID_218_0); fill-rule: nonzero; opacity: 1;" vector-effect="non-scaling-stroke" transform=" translate(-138.55, -139.42)" d="M 237.91 214.8554 L 237.91 213.97009 L 240.07018 215.20448 L 240.77561 215.20448 L 240.77561 215.60757999999998 L 241.09826 215.79194999999999 L 244.36 216.75008999999997 L 242.775 216.75008999999997 L 275.115 235.23008999999996 L 275.39 235.23008999999996 L 275.39 235.38722999999996 L 277.11 236.37008999999995 L 275.39 236.37008999999995 L 275.39 252.83008999999996 L 274.52341 252.42444999999995 C 274.40866 259.49411999999995 270.96016000000003 265.80541999999997 265.59647 270.0200899999999 L 269.38 270.0200899999999 L 264.97849 270.4901499999999 C 260.77862000000005 273.5818799999999 255.49603000000002 275.42457999999993 249.76000000000002 275.42457999999993 C 248.32349000000002 275.42457999999993 246.91542 275.30900999999994 245.54567000000003 275.0871899999999 C 245.43433000000002 275.0903899999999 245.32260000000002 275.0919999999999 245.21048000000002 275.0919999999999 L 231.47207000000003 275.0919999999999 C 225.23027000000002 275.7199999999999 217.05216000000004 276.24481999999995 207.55322000000004 276.62294999999995 L 186.97999000000004 278.82008999999994 L 186.97999000000004 277.17062999999996 C 186.67403000000004 277.17517999999995 186.36735000000004 277.17958 186.05999000000006 277.18386 L 186.05999000000006 278.83009 L 165.04937000000007 277.2571 C 143.53389000000007 277.11266 124.74236000000008 276.30366 112.82590000000008 275.12375 L 110.82470000000008 275.12375 C 108.74919000000008 275.12375 106.75648000000008 274.76921999999996 104.90383000000008 274.11742999999996 C 101.65556000000008 273.56703999999996 99.72189000000009 272.96825999999993 99.38085000000008 272.34074999999996 L 62.77148000000008 269.59993999999995 L 60.68014000000008 269.59993999999995 C 59.20916000000008 269.59993999999995 57.77667000000008 269.4351199999999 56.40014000000008 269.12293999999997 L 36.45998000000008 267.63009 L 52.182840000000084 267.63009 C 51.83445000000008 267.45865 51.49199000000009 267.27699 51.15586000000008 267.08551 L 39.54203000000008 267.08551 C 37.12865000000008 267.08551 34.916700000000084 266.22306 33.19759000000008 264.78955 C 30.072510000000083 264.05585 25.528740000000084 257.58201 21.64668000000008 248.4677 C 18.226490000000084 245.08965 14.207580000000082 236.62498 11.439470000000082 226.29424 C 11.234510000000082 225.52932 11.040610000000083 224.76984 10.857760000000082 224.01729 C 9.240890000000082 220.37556 7.708700000000082 216.03106 6.439470000000083 211.29424 C 5.149040000000083 206.47828 4.296780000000083 201.87761 3.883570000000083 197.86849 C 3.7253500000000828 197.31631000000002 3.570550000000083 196.75806 3.4194700000000826 196.19424 C 0.6601500000000824 185.89633 -0.0956999999999173 176.58279000000002 1.1603800000000826 171.93218000000002 L -0.00001999999991753043 168.92009000000002 L 3.2198500000000823 168.92009000000002 C 3.2648800000000824 168.9043 3.3104900000000823 168.89021000000002 3.3566700000000824 168.87784000000002 C 3.7328100000000823 168.77705000000003 4.1328400000000824 168.79391 4.551960000000083 168.92009000000002 L 37.599970000000084 168.92009000000002 L 37.599970000000084 169.14483 C 38.22798000000009 169.02009 38.87736000000008 168.95467000000002 39.542020000000086 168.95467000000002 L 55.69790000000009 168.95467000000002 C 58.33635000000009 168.95467000000002 60.73403000000009 169.98548000000002 62.51020000000009 171.66635000000002 L 87.78962000000008 175.53565000000003 C 88.47978000000009 173.02209000000002 89.52661000000009 170.65564000000003 90.87222000000008 168.49421000000004 C 94.47026000000008 150.58164000000005 113.25726000000009 136.91294000000005 135.86997000000008 136.91294000000005 C 138.26960000000008 136.91294000000005 140.62615000000008 137.06687000000005 142.92604000000009 137.36345000000006 C 149.4096100000001 135.51391000000007 156.5175000000001 134.49294000000006 163.96997000000007 134.49294000000006 C 167.18271000000007 134.49294000000006 170.3314000000001 134.68268000000006 173.39365000000006 135.04675000000006 L 209.37522000000007 0.7616900000000726 L 210.04023000000007 2.5600900000000726 C 211.59731000000008 0.9958900000000726 213.94067000000007 -0.000009999999927234882 216.55996000000007 -0.000009999999927234882 C 221.24436000000009 -0.000009999999927234882 225.04620000000008 3.1853100000000727 225.04620000000008 7.110080000000073 C 225.04620000000008 7.533080000000073 225.00204000000008 7.947500000000073 224.9173700000001 8.350260000000073 L 269.6011700000001 141.91976000000008 L 269.7673500000001 141.91976000000008 L 269.7673500000001 142.41651000000007 L 270.20008000000007 143.71003000000007 L 269.7673500000001 143.71003000000007 L 269.7673500000001 145.17797000000007 L 269.9149100000001 145.17797000000007 L 269.9149100000001 172.24219000000008 L 269.7673500000001 172.24219000000008 L 269.7673500000001 181.17397000000008 C 269.8622600000001 181.65381000000008 269.91170000000005 182.14699000000007 269.91170000000005 182.6500800000001 C 269.91170000000005 187.4610900000001 265.39060000000006 191.36568000000008 259.81996000000004 191.36568000000008 C 258.34878000000003 191.36568000000008 256.9508 191.09335000000007 255.68996000000004 190.60391000000007 L 255.68996000000004 191.08008000000007 L 254.53316000000004 190.07416000000006 C 253.16885000000005 189.34761000000006 252.01959000000005 188.34846000000007 251.18746000000004 187.16485000000006 L 234.02639000000005 172.24218000000005 L 218.98130000000006 172.24218000000005 C 218.98140000000006 172.27147000000005 218.98145000000005 172.30077000000006 218.98145000000005 172.33008000000004 C 218.98145000000005 173.95040000000003 218.83312000000006 175.54704000000004 218.54531000000006 177.11392000000004 C 218.82097000000005 179.34919000000002 218.96484000000007 181.65042000000003 218.96484000000007 184.00007000000002 C 218.96484000000007 192.90038 216.90053000000006 201.10583000000003 213.42874000000006 207.66402000000002 z" stroke-linecap="round"></path></g><g transform="matrix(-0.16 -0.03 -0.04 0.26 281.57 308.01)" id="062rRL0XuyKSd9_wqztJI"><path style="stroke: none; stroke-width: 1; stroke-dasharray: none; stroke-linecap: butt; stroke-dashoffset: 0; stroke-linejoin: miter; stroke-miterlimit: 4; fill: rgb(0,0,0); fill-rule: nonzero; opacity: 1;" vector-effect="non-scaling-stroke" transform=" translate(-40, -40)" d="M 0 0 L 80 80 L 0 80 L 0 0 z" stroke-linecap="round"></path></g><g transform="matrix(0.87 0.5 -0.5 0.87 227.14 356.89)" id="HnHZVV2PNhO4Mka530pFv"><path style="stroke: rgb(92,144,35); stroke-width: 0; stroke-dasharray: none; stroke-linecap: butt; stroke-dashoffset: 0; stroke-linejoin: miter; stroke-miterlimit: 4; fill: rgb(0,0,0); fill-rule: nonzero; opacity: 0.6;" vector-effect="non-scaling-stroke" transform=" translate(-25.84, -24.58)" d="M 25.84393 0 L 33.51069 16.62152 L 51.68785 18.77671 L 38.24901 31.204570000000004 L 41.81635 49.15807 L 25.84392 40.21739 L 9.871490000000001 49.15807 L 13.438830000000001 31.204570000000004 L -0.000009999999999621423 18.77671 L 18.17715 16.62152 z" stroke-linecap="round"></path></g><g transform="matrix(0.64 0.77 -0.77 0.64 279.1 370.69)" id="zz89u7KbTXmJgVwsJ-357"><path style="stroke: rgb(92,144,35); stroke-width: 0; stroke-dasharray: none; stroke-linecap: butt; stroke-dashoffset: 0; stroke-linejoin: miter; stroke-miterlimit: 4; fill: rgb(0,0,0); fill-rule: nonzero; opacity: 0.6;" vector-effect="non-scaling-stroke" transform=" translate(-25.84, -24.58)" d="M 25.84393 0 L 33.51069 16.62152 L 51.68785 18.77671 L 38.24901 31.204570000000004 L 41.81635 49.15807 L 25.84392 40.21739 L 9.871490000000001 49.15807 L 13.438830000000001 31.204570000000004 L -0.000009999999999621423 18.77671 L 18.17715 16.62152 z" stroke-linecap="round"></path></g><g transform="matrix(0.49 0.59 -0.59 0.49 328.8 379.05)" id="B0fNgPJsimCtmg_nMGmQ_"><path style="stroke: rgb(92,144,35); stroke-width: 0; stroke-dasharray: none; stroke-linecap: butt; stroke-dashoffset: 0; stroke-linejoin: miter; stroke-miterlimit: 4; fill: rgb(0,0,0); fill-rule: nonzero; opacity: 0.6;" vector-effect="non-scaling-stroke" transform=" translate(-25.84, -24.58)" d="M 25.84393 0 L 33.51069 16.62152 L 51.68785 18.77671 L 38.24901 31.204570000000004 L 41.81635 49.15807 L 25.84392 40.21739 L 9.871490000000001 49.15807 L 13.438830000000001 31.204570000000004 L -0.000009999999999621423 18.77671 L 18.17715 16.62152 z" stroke-linecap="round"></path></g><g transform="matrix(0.56 0.2 -0.2 0.56 370.51 387.28)" id="LQaj-VD-2gc35ks_E6bIn"><path style="stroke: rgb(92,144,35); stroke-width: 0; stroke-dasharray: none; stroke-linecap: butt; stroke-dashoffset: 0; stroke-linejoin: miter; stroke-miterlimit: 4; fill: rgb(0,0,0); fill-rule: nonzero; opacity: 0.6;" vector-effect="non-scaling-stroke" transform=" translate(-25.84, -24.58)" d="M 25.84393 0 L 33.51069 16.62152 L 51.68785 18.77671 L 38.24901 31.204570000000004 L 41.81635 49.15807 L 25.84392 40.21739 L 9.871490000000001 49.15807 L 13.438830000000001 31.204570000000004 L -0.000009999999999621423 18.77671 L 18.17715 16.62152 z" stroke-linecap="round"></path></g><g transform="matrix(0.47 0.08 -0.08 0.47 404.12 392.63)" id="9tyefts4HIzbtWVSe9T1t"><path style="stroke: rgb(92,144,35); stroke-width: 0; stroke-dasharray: none; stroke-linecap: butt; stroke-dashoffset: 0; stroke-linejoin: miter; stroke-miterlimit: 4; fill: rgb(0,0,0); fill-rule: nonzero; opacity: 0.6;" vector-effect="non-scaling-stroke" transform=" translate(-25.84, -24.58)" d="M 25.84393 0 L 33.51069 16.62152 L 51.68785 18.77671 L 38.24901 31.204570000000004 L 41.81635 49.15807 L 25.84392 40.21739 L 9.871490000000001 49.15807 L 13.438830000000001 31.204570000000004 L -0.000009999999999621423 18.77671 L 18.17715 16.62152 z" stroke-linecap="round"></path></g><g transform="matrix(1.26 0 0 1.04 323.32 315.24)" id="E52q_IXHh_9D1fbxBFR7q"><path style="stroke: rgb(178,229,242); stroke-width: 0; stroke-dasharray: none; stroke-linecap: butt; stroke-dashoffset: 0; stroke-linejoin: miter; stroke-miterlimit: 4; fill: rgb(0,0,0); fill-rule: nonzero; opacity: 1;" vector-effect="non-scaling-stroke" transform=" translate(-40.01, -14.51)" d="M 14.0329 0 L 63.3439 7.9047 L 63.35987 7.83612 L 80.01626 10.61259 L 60.91678 26.754170000000002 L 60.52496 29.018 L 58.60272 28.70986 L 58.47163 28.82065 L 58.50123 28.69359 L 15.54251 21.80717 C 14.81519 21.99196 14.05344 22.09018 13.2689 22.09018 C 10.33648 22.09018 7.722580000000001 20.7181 6.0346 18.58133 C 5.84188 18.58041 5.65231 18.56608 5.46678 18.53923 C 4.88606 19.07271 4.11156 19.39851 3.26144 19.39851 C 1.4611299999999998 19.39851 0.000019999999999686935 17.93739 0.000019999999999686935 16.13709 C 0.000019999999999686935 14.68684 0.9481699999999997 13.456700000000001 2.2579899999999995 13.033150000000001 C 2.6316899999999994 12.07338 3.3590199999999992 11.28991 4.27964 10.84307 C 5.20599 6.733560000000001 8.88084 3.661170000000001 13.268899999999999 3.661170000000001 C 13.312369999999998 3.661170000000001 13.355759999999998 3.6614700000000013 13.399079999999998 3.6620700000000013 z" stroke-linecap="round"></path></g><g transform="matrix(1 0.09 -0.02 0.19 289.01 319.39)" id="YCYyTqll0BGuMT0dS4h_H"><path style="stroke: rgb(128,206,125); stroke-width: 0; stroke-dasharray: none; stroke-linecap: butt; stroke-dashoffset: 0; stroke-linejoin: miter; stroke-miterlimit: 4; fill: rgb(0,0,0); fill-rule: nonzero; opacity: 1;" vector-effect="non-scaling-stroke" transform=" translate(0, 0)" d="M -15.87302 -15.87302 L 15.87301 -15.87302 L 15.87301 15.87301 L -15.87302 15.87301 z" stroke-linecap="round"></path></g><g transform="matrix(0.37 -0.49 0.15 0.11 282.53 310.4)" id="LL3y8BNpHNyskgzwHH77F"><path style="stroke: rgb(128,206,125); stroke-width: 0; stroke-dasharray: none; stroke-linecap: butt; stroke-dashoffset: 0; stroke-linejoin: miter; stroke-miterlimit: 4; fill: rgb(0,0,0); fill-rule: nonzero; opacity: 1;" vector-effect="non-scaling-stroke" transform=" translate(0, 0)" d="M -15.87302 -15.87302 L 15.87301 -15.87302 L 15.87301 15.87301 L -15.87302 15.87301 z" stroke-linecap="round"></path></g></svg>
