<svg xmlns="http://www.w3.org/2000/svg" xmlns:xlink="http://www.w3.org/1999/xlink" version="1.1" xml:space="preserve" viewBox="181.38 153.65 277.11 278.83">
<defs>
</defs>
<g transform="matrix(1 0 0 1 319.94 293.07)" id="uGjVonvLAxaMO_hSrUOvk">
<linearGradient id="SVGID_218" gradientUnits="userSpaceOnUse" gradientTransform="matrix(1 0 0 1 -138.56 -139.42)" x1="0" y1="139.41504999999995" x2="277.1100199999999" y2="139.41504999999995">
<stop offset="0%" style="stop-color:#122766;stop-opacity: 1"/>
<stop offset="100%" style="stop-color:#6c84cc;stop-opacity: 1"/>
</linearGradient>
<path style="stroke: none; stroke-width: 1; stroke-dasharray: none; stroke-linecap: butt; stroke-dashoffset: 0; stroke-linejoin: miter; stroke-miterlimit: 4; fill: url(#SVGID_218); fill-rule: nonzero; opacity: 1;" vector-effect="non-scaling-stroke" transform=" translate(0, 0)" d="M 99.35501 75.44036 L 99.35501 74.55505 L 101.51518999999999 75.78944 L 102.22062 75.78944 L 102.22062 76.19254 L 102.54326999999999 76.37691 L 105.80501 77.33505 L 104.22001 77.33505 L 136.56001 95.81505 L 136.83501 95.81505 L 136.83501 95.97219 L 138.55501 96.95505 L 136.83501 96.95505 L 136.83501 113.41505000000001 L 135.96842 113.00941 C 135.85367000000002 120.07908 132.40517 126.39038000000001 127.04148 130.60505 L 130.82501000000002 130.60505 L 126.42350000000002 131.07511 C 122.22363000000001 134.16684 116.94104000000002 136.00954 111.20501000000002 136.00954 C 109.76850000000002 136.00954 108.36043000000002 135.89397 106.99068000000001 135.67215 C 106.87934000000001 135.67534999999998 106.76761 135.67695999999998 106.65549000000001 135.67695999999998 L 92.91708000000001 135.67695999999998 C 86.67528000000001 136.30495999999997 78.49717000000001 136.82977999999997 68.99823 137.20790999999997 L 48.42500000000001 139.40504999999996 L 48.42500000000001 137.75558999999996 C 48.11904000000001 137.76013999999995 47.81236000000001 137.76453999999995 47.50500000000001 137.76881999999995 L 47.50500000000001 139.41504999999995 L 26.49438000000001 137.84205999999995 C 4.97890000000001 137.69761999999994 -13.812629999999988 136.88861999999995 -25.72908999999999 135.70870999999994 L -27.73028999999999 135.70870999999994 C -29.80579999999999 135.70870999999994 -31.79850999999999 135.35417999999993 -33.65115999999999 134.70238999999995 C -36.89942999999999 134.15199999999996 -38.83309999999999 133.55321999999995 -39.17413999999999 132.92570999999995 L -75.78350999999998 130.18489999999994 L -77.87484999999998 130.18489999999994 C -79.34582999999998 130.18489999999994 -80.77831999999998 130.02007999999995 -82.15484999999998 129.70789999999994 L -102.09500999999997 128.21504999999993 L -86.37214999999998 128.21504999999993 C -86.72053999999997 128.04360999999994 -87.06299999999997 127.86194999999994 -87.39912999999997 127.67046999999994 L -99.01295999999996 127.67046999999994 C -101.42633999999997 127.67046999999994 -103.63828999999997 126.80801999999994 -105.35739999999997 125.37450999999994 C -108.48247999999997 124.64080999999995 -113.02624999999998 118.16696999999995 -116.90830999999997 109.05265999999995 C -120.32849999999998 105.67460999999994 -124.34740999999997 97.20993999999995 -127.11551999999998 86.87919999999994 C -127.32047999999998 86.11427999999994 -127.51437999999997 85.35479999999994 -127.69722999999998 84.60224999999994 C -129.31409999999997 80.96051999999995 -130.84628999999998 76.61601999999993 -132.11551999999998 71.87919999999994 C -133.40594999999996 67.06323999999994 -134.25820999999996 62.46256999999994 -134.67141999999998 58.45344999999994 C -134.82963999999998 57.90126999999994 -134.98443999999998 57.34301999999994 -135.13551999999999 56.77919999999994 C -137.89484 46.48128999999994 -138.65069 37.16774999999994 -137.39460999999997 32.51713999999994 L -138.55500999999998 29.50504999999994 L -135.33514 29.50504999999994 C -135.29011 29.48925999999994 -135.2445 29.47516999999994 -135.19832 29.46279999999994 C -134.82218 29.36200999999994 -134.42215 29.378869999999942 -134.00303 29.50504999999994 L -100.95501999999999 29.50504999999994 L -100.95501999999999 29.72978999999994 C -100.32700999999999 29.60504999999994 -99.67763 29.539629999999942 -99.01297 29.539629999999942 L -82.85709 29.539629999999942 C -80.21864 29.539629999999942 -77.82096 30.57043999999994 -76.04479 32.25130999999994 L -50.765370000000004 36.12060999999994 C -50.075210000000006 33.607049999999944 -49.028380000000006 31.240599999999944 -47.682770000000005 29.07916999999994 C -44.08473000000001 11.166599999999942 -25.297730000000005 -2.502100000000059 -2.6850200000000015 -2.502100000000059 C -0.28539000000000136 -2.502100000000059 2.071159999999998 -2.348170000000059 4.3710499999999985 -2.051590000000059 C 10.854619999999999 -3.901130000000059 17.962509999999998 -4.922100000000059 25.41498 -4.922100000000059 C 28.62772 -4.922100000000059 31.77641 -4.732360000000059 34.83866 -4.368290000000059 L 70.82023 -138.65335000000005 L 71.48523999999999 -136.85495000000006 C 73.04231999999999 -138.41915000000006 75.38568 -139.41505000000006 78.00496999999999 -139.41505000000006 C 82.68936999999998 -139.41505000000006 86.49120999999998 -136.22973000000007 86.49120999999998 -132.30496000000005 C 86.49120999999998 -131.88196000000005 86.44704999999998 -131.46754000000004 86.36237999999999 -131.06478000000004 L 131.04618 2.5047199999999634 L 131.21236 2.5047199999999634 L 131.21236 3.0014699999999634 L 131.64508999999998 4.294989999999963 L 131.21236 4.294989999999963 L 131.21236 5.7629299999999635 L 131.35992 5.7629299999999635 L 131.35992 32.82714999999996 L 131.21236 32.82714999999996 L 131.21236 41.758929999999964 C 131.30727 42.23876999999997 131.35671 42.73194999999996 131.35671 43.23503999999996 C 131.35671 48.046049999999966 126.83560999999999 51.950639999999964 121.26496999999999 51.950639999999964 C 119.79378999999999 51.950639999999964 118.39581 51.67830999999997 117.13497 51.188869999999966 L 117.13497 51.66503999999997 L 115.97816999999999 50.659119999999966 C 114.61385999999999 49.93256999999996 113.46459999999999 48.93341999999996 112.63247 47.74980999999997 L 95.4714 32.82713999999997 L 80.42631 32.82713999999997 C 80.42641 32.856429999999975 80.42646 32.885729999999974 80.42646 32.91503999999997 C 80.42646 34.53535999999997 80.27813 36.13199999999997 79.99032000000001 37.69887999999997 C 80.26598000000001 39.93414999999997 80.40985 42.235379999999964 80.40985 44.58502999999997 C 80.40985 53.485339999999965 78.34554 61.690789999999964 74.87375 68.24897999999996 z" stroke-linecap="round"/>
</g>
<g transform="matrix(-0.16 -0.03 -0.04 0.26 281.57 308.01)" id="062rRL0XuyKSd9_wqztJI">
<path style="stroke: none; stroke-width: 1; stroke-dasharray: none; stroke-linecap: butt; stroke-dashoffset: 0; stroke-linejoin: miter; stroke-miterlimit: 4; fill: rgb(0,0,0); fill-rule: nonzero; opacity: 1;" vector-effect="non-scaling-stroke" transform=" translate(-40, -40)" d="M 0 0 L 80 80 L 0 80 L 0 0 z" stroke-linecap="round"/>
</g>
<g transform="matrix(0.87 0.5 -0.5 0.87 227.14 356.89)" id="HnHZVV2PNhO4Mka530pFv">
<path style="stroke: rgb(92,144,35); stroke-width: 0; stroke-dasharray: none; stroke-linecap: butt; stroke-dashoffset: 0; stroke-linejoin: miter; stroke-miterlimit: 4; fill: rgb(0,0,0); fill-rule: nonzero; opacity: 0.6;" vector-effect="non-scaling-stroke" transform=" translate(-25.84, -24.58)" d="M 25.84393 0 L 33.51069 16.62152 L 51.68785 18.77671 L 38.24901 31.204570000000004 L 41.81635 49.15807 L 25.84392 40.21739 L 9.871490000000001 49.15807 L 13.438830000000001 31.204570000000004 L -0.000009999999999621423 18.77671 L 18.17715 16.62152 z" stroke-linecap="round"/>
</g>
<g transform="matrix(0.64 0.77 -0.77 0.64 279.1 370.69)" id="zz89u7KbTXmJgVwsJ-357">
<path style="stroke: rgb(92,144,35); stroke-width: 0; stroke-dasharray: none; stroke-linecap: butt; stroke-dashoffset: 0; stroke-linejoin: miter; stroke-miterlimit: 4; fill: rgb(0,0,0); fill-rule: nonzero; opacity: 0.6;" vector-effect="non-scaling-stroke" transform=" translate(-25.84, -24.58)" d="M 25.84393 0 L 33.51069 16.62152 L 51.68785 18.77671 L 38.24901 31.204570000000004 L 41.81635 49.15807 L 25.84392 40.21739 L 9.871490000000001 49.15807 L 13.438830000000001 31.204570000000004 L -0.000009999999999621423 18.77671 L 18.17715 16.62152 z" stroke-linecap="round"/>
</g>
<g transform="matrix(0.49 0.59 -0.59 0.49 328.8 379.05)" id="B0fNgPJsimCtmg_nMGmQ_">
<path style="stroke: rgb(92,144,35); stroke-width: 0; stroke-dasharray: none; stroke-linecap: butt; stroke-dashoffset: 0; stroke-linejoin: miter; stroke-miterlimit: 4; fill: rgb(0,0,0); fill-rule: nonzero; opacity: 0.6;" vector-effect="non-scaling-stroke" transform=" translate(-25.84, -24.58)" d="M 25.84393 0 L 33.51069 16.62152 L 51.68785 18.77671 L 38.24901 31.204570000000004 L 41.81635 49.15807 L 25.84392 40.21739 L 9.871490000000001 49.15807 L 13.438830000000001 31.204570000000004 L -0.000009999999999621423 18.77671 L 18.17715 16.62152 z" stroke-linecap="round"/>
</g>
<g transform="matrix(0.56 0.2 -0.2 0.56 370.51 387.28)" id="LQaj-VD-2gc35ks_E6bIn">
<path style="stroke: rgb(92,144,35); stroke-width: 0; stroke-dasharray: none; stroke-linecap: butt; stroke-dashoffset: 0; stroke-linejoin: miter; stroke-miterlimit: 4; fill: rgb(0,0,0); fill-rule: nonzero; opacity: 0.6;" vector-effect="non-scaling-stroke" transform=" translate(-25.84, -24.58)" d="M 25.84393 0 L 33.51069 16.62152 L 51.68785 18.77671 L 38.24901 31.204570000000004 L 41.81635 49.15807 L 25.84392 40.21739 L 9.871490000000001 49.15807 L 13.438830000000001 31.204570000000004 L -0.000009999999999621423 18.77671 L 18.17715 16.62152 z" stroke-linecap="round"/>
</g>
<g transform="matrix(0.47 0.08 -0.08 0.47 404.12 392.63)" id="9tyefts4HIzbtWVSe9T1t">
<path style="stroke: rgb(92,144,35); stroke-width: 0; stroke-dasharray: none; stroke-linecap: butt; stroke-dashoffset: 0; stroke-linejoin: miter; stroke-miterlimit: 4; fill: rgb(0,0,0); fill-rule: nonzero; opacity: 0.6;" vector-effect="non-scaling-stroke" transform=" translate(-25.84, -24.58)" d="M 25.84393 0 L 33.51069 16.62152 L 51.68785 18.77671 L 38.24901 31.204570000000004 L 41.81635 49.15807 L 25.84392 40.21739 L 9.871490000000001 49.15807 L 13.438830000000001 31.204570000000004 L -0.000009999999999621423 18.77671 L 18.17715 16.62152 z" stroke-linecap="round"/>
</g>
<g transform="matrix(1.05 0 0 1.07 290.29 309.99)" id="4OwM8RS5HR-0lR6lkIw9X">
<path style="stroke: rgb(178,229,242); stroke-width: 0; stroke-dasharray: none; stroke-linecap: butt; stroke-dashoffset: 0; stroke-linejoin: miter; stroke-miterlimit: 4; fill: rgb(0,0,0); fill-rule: nonzero; opacity: 1;" vector-effect="non-scaling-stroke" transform=" translate(0, 0)" d="M 0 -9.2145 C 5.0864 -9.2145 9.2145 -5.086399999999999 9.2145 0 C 9.2145 5.0864 5.086399999999999 9.2145 0 9.2145 C -5.0864 9.2145 -9.2145 5.086399999999999 -9.2145 0 C -9.2145 -5.0864 -5.086399999999999 -9.2145 0 -9.2145 z" stroke-linecap="round"/>
</g>
<g transform="matrix(1.26 0 0 1.04 323.32 315.24)" id="E52q_IXHh_9D1fbxBFR7q">
<path style="stroke: rgb(178,229,242); stroke-width: 0; stroke-dasharray: none; stroke-linecap: butt; stroke-dashoffset: 0; stroke-linejoin: miter; stroke-miterlimit: 4; fill: rgb(0,0,0); fill-rule: nonzero; opacity: 1;" vector-effect="non-scaling-stroke" transform=" translate(-40.01, -14.51)" d="M 14.0329 0 L 63.3439 7.9047 L 63.35987 7.83612 L 80.01626 10.61259 L 60.91678 26.754170000000002 L 60.52496 29.018 L 58.60272 28.70986 L 58.47163 28.82065 L 58.50123 28.69359 L 15.54251 21.80717 C 14.81519 21.99196 14.05344 22.09018 13.2689 22.09018 C 10.33648 22.09018 7.722580000000001 20.7181 6.0346 18.58133 C 5.84188 18.58041 5.65231 18.56608 5.46678 18.53923 C 4.88606 19.07271 4.11156 19.39851 3.26144 19.39851 C 1.4611299999999998 19.39851 0.000019999999999686935 17.93739 0.000019999999999686935 16.13709 C 0.000019999999999686935 14.68684 0.9481699999999997 13.456700000000001 2.2579899999999995 13.033150000000001 C 2.6316899999999994 12.07338 3.3590199999999992 11.28991 4.27964 10.84307 C 5.20599 6.733560000000001 8.88084 3.661170000000001 13.268899999999999 3.661170000000001 C 13.312369999999998 3.661170000000001 13.355759999999998 3.6614700000000013 13.399079999999998 3.6620700000000013 z" stroke-linecap="round"/>
</g>
<g transform="matrix(1 0.09 -0.02 0.19 289.01 319.39)" id="YCYyTqll0BGuMT0dS4h_H">
<path style="stroke: rgb(128,206,125); stroke-width: 0; stroke-dasharray: none; stroke-linecap: butt; stroke-dashoffset: 0; stroke-linejoin: miter; stroke-miterlimit: 4; fill: rgb(0,0,0); fill-rule: nonzero; opacity: 1;" vector-effect="non-scaling-stroke" transform=" translate(0, 0)" d="M -15.87302 -15.87302 L 15.87301 -15.87302 L 15.87301 15.87301 L -15.87302 15.87301 z" stroke-linecap="round"/>
</g>
<g transform="matrix(0.37 -0.49 0.15 0.11 282.53 310.4)" id="LL3y8BNpHNyskgzwHH77F">
<path style="stroke: rgb(128,206,125); stroke-width: 0; stroke-dasharray: none; stroke-linecap: butt; stroke-dashoffset: 0; stroke-linejoin: miter; stroke-miterlimit: 4; fill: rgb(0,0,0); fill-rule: nonzero; opacity: 1;" vector-effect="non-scaling-stroke" transform=" translate(0, 0)" d="M -15.87302 -15.87302 L 15.87301 -15.87302 L 15.87301 15.87301 L -15.87302 15.87301 z" stroke-linecap="round"/>
</g>
</svg>