<svg xmlns="http://www.w3.org/2000/svg" fill="none" viewBox="41.43 0.25 24.55 31.95"><path d="M45.1365 24.5245L60.3322 4.64342L63.2236 6.74235L48.0278 26.6234L45.1365 24.5245Z" fill="white" stroke="white" stroke-width="1.5" stroke-miterlimit="10"></path><path d="M63.6619 6.12723C62.1687 8.35728 60.2734 9.72954 59.4284 9.19225C58.5835 8.65496 59.1091 6.41158 60.6022 4.18152C62.0954 1.95146 63.9907 0.579206 64.8356 1.1165C65.6805 1.65379 65.155 3.89717 63.6619 6.12723Z" fill="white" stroke="white" stroke-width="1.5" stroke-miterlimit="10"></path><path d="M60.7211 3.16347L55.438 10.1265L60.7211 3.16347Z" fill="white"></path><path d="M60.7211 3.16347L55.438 10.1265" stroke="white" stroke-width="1.5" stroke-miterlimit="10" stroke-linecap="round"></path><path d="M44.9151 25.1765L47.4715 27.0651L46.6258 28.9948L42.55 31.4256C43.0745 30.6274 43.5815 29.801 44.1599 29.0743C44.1599 29.0743 44.2731 28.9288 44.1238 28.8186C43.9745 28.7083 43.8614 28.8538 43.8614 28.8538C43.1812 29.7442 42.5908 30.7685 41.9344 31.7021L43.1182 26.4035L44.9151 25.1765Z" fill="white" stroke="white" stroke-miterlimit="10" stroke-linecap="round"></path></svg>