<svg version="1.1" xmlns="http://www.w3.org/2000/svg" viewBox="0 0 833.3127489748463 672.9217653916378" width="833.3127489748463" height="672.9217653916378">
  <!-- svg-source:excalidraw -->
  
  <defs>
    <style class="style-fonts">
      @font-face {
        font-family: "Virgil";
        src: url("https://excalidraw.com/Virgil.woff2");
      }
      @font-face {
        font-family: "Cascadia";
        src: url("https://excalidraw.com/Cascadia.woff2");
      }
    </style>
  </defs>
  <rect x="0" y="0" width="833.3127489748463" height="672.9217653916378" fill="#ffffff"></rect><g stroke-linecap="round"><g transform="translate(398.5826006253566 120.37492665634957) rotate(0 0.2581950989558095 16.461910147353947)"><path d="M0 0 C0.09 5.49, 0.43 27.44, 0.52 32.92 M0 0 C0.09 5.49, 0.43 27.44, 0.52 32.92" stroke="#000000" stroke-width="1" fill="none"></path></g><g transform="translate(398.5826006253566 120.37492665634957) rotate(0 0.2581950989558095 16.461910147353947)"><path d="M-5.36 17.54 C-3.84 21.5, -2.33 25.46, 0.52 32.92 M-5.36 17.54 C-3.63 22.08, -1.89 26.61, 0.52 32.92" stroke="#000000" stroke-width="1" fill="none"></path></g><g transform="translate(398.5826006253566 120.37492665634957) rotate(0 0.2581950989558095 16.461910147353947)"><path d="M5.9 17.37 C4.52 21.37, 3.13 25.38, 0.52 32.92 M5.9 17.37 C4.32 21.95, 2.73 26.54, 0.52 32.92" stroke="#000000" stroke-width="1" fill="none"></path></g></g><mask></mask><g stroke-linecap="round" transform="translate(288.7415526923138 162.6222649358204) rotate(0 117.26155090332037 50)"><path d="M25 0 M25 0 C85.58 0, 146.15 0, 209.52 0 M25 0 C65.09 0, 105.18 0, 209.52 0 M209.52 0 C226.19 0, 234.52 8.33, 234.52 25 M209.52 0 C226.19 0, 234.52 8.33, 234.52 25 M234.52 25 C234.52 35.65, 234.52 46.3, 234.52 75 M234.52 25 C234.52 39.44, 234.52 53.88, 234.52 75 M234.52 75 C234.52 91.67, 226.19 100, 209.52 100 M234.52 75 C234.52 91.67, 226.19 100, 209.52 100 M209.52 100 C154.91 100, 100.3 100, 25 100 M209.52 100 C141.7 100, 73.88 100, 25 100 M25 100 C8.33 100, 0 91.67, 0 75 M25 100 C8.33 100, 0 91.67, 0 75 M0 75 C0 60.4, 0 45.8, 0 25 M0 75 C0 64.99, 0 54.98, 0 25 M0 25 C0 8.33, 8.33 0, 25 0 M0 25 C0 8.33, 8.33 0, 25 0" stroke="#000000" stroke-width="1" fill="none"></path></g><g transform="translate(365.06148372258724 220.4071465574196) rotate(0 42.41828369140626 12.932403564453125)"><text x="0" y="17.86480712890625" font-family="Virgil, Segoe UI Emoji" font-size="20.69184570312499px" fill="#000000" text-anchor="start" style="white-space: pre;" direction="ltr">web API</text></g><g transform="translate(336.35518489446224 190.41343317851334) rotate(0 71 12)"><text x="0" y="19" font-family="Cascadia, Segoe UI Emoji" font-size="20px" fill="#000000" text-anchor="start" style="white-space: pre;" direction="ltr">rateboat-web</text></g><g stroke-linecap="round" transform="translate(276.0200146097702 10) rotate(0 117.26155090332031 50)"><path d="M25 0 M25 0 C83.64 0, 142.27 0, 209.52 0 M25 0 C94.69 0, 164.38 0, 209.52 0 M209.52 0 C226.19 0, 234.52 8.33, 234.52 25 M209.52 0 C226.19 0, 234.52 8.33, 234.52 25 M234.52 25 C234.52 40.61, 234.52 56.21, 234.52 75 M234.52 25 C234.52 44.97, 234.52 64.94, 234.52 75 M234.52 75 C234.52 91.67, 226.19 100, 209.52 100 M234.52 75 C234.52 91.67, 226.19 100, 209.52 100 M209.52 100 C135.85 100, 62.19 100, 25 100 M209.52 100 C143.26 100, 77 100, 25 100 M25 100 C8.33 100, 0 91.67, 0 75 M25 100 C8.33 100, 0 91.67, 0 75 M0 75 C0 59.17, 0 43.35, 0 25 M0 75 C0 57.76, 0 40.52, 0 25 M0 25 C0 8.33, 8.33 0, 25 0 M0 25 C0 8.33, 8.33 0, 25 0" stroke="#000000" stroke-width="1" fill="none"></path></g><g transform="translate(326.18765830374423 30.969368365964556) rotate(0 71 12)"><text x="0" y="19" font-family="Cascadia, Segoe UI Emoji" font-size="20px" fill="#000000" text-anchor="start" style="white-space: pre;" direction="ltr">rateboat-gui</text></g><g transform="translate(346.9138359649919 61.470808910353185) rotate(0 50 12.5)"><text x="0" y="18" font-family="Virgil, Segoe UI Emoji" font-size="20px" fill="#000000" text-anchor="start" style="white-space: pre;" direction="ltr">TS/Svelte</text></g><g stroke-linecap="round"><g transform="translate(399.3668257347913 272.86838233351256) rotate(0 0.48894166822657326 22.54699977857905)"><path d="M0 0 C0.16 7.52, 0.81 37.58, 0.98 45.09 M0 0 C0.16 7.52, 0.81 37.58, 0.98 45.09" stroke="#000000" stroke-width="1" fill="none"></path></g><g transform="translate(399.3668257347913 272.86838233351256) rotate(0 0.48894166822657326 22.54699977857905)"><path d="M-7.19 24.07 C-4.33 31.44, -1.47 38.81, 0.98 45.09 M-7.19 24.07 C-3.94 32.45, -0.68 40.82, 0.98 45.09" stroke="#000000" stroke-width="1" fill="none"></path></g><g transform="translate(399.3668257347913 272.86838233351256) rotate(0 0.48894166822657326 22.54699977857905)"><path d="M8.23 23.74 C5.69 31.22, 3.15 38.71, 0.98 45.09 M8.23 23.74 C5.34 32.25, 2.45 40.75, 0.98 45.09" stroke="#000000" stroke-width="1" fill="none"></path></g></g><mask></mask><g stroke-linecap="round" transform="translate(227.00316259817657 330.7483465458436) rotate(0 183.95441844157563 108.74159805409411)"><path d="M32 0 M32 0 C129.09 0, 226.19 0, 335.91 0 M32 0 C106.78 0, 181.55 0, 335.91 0 M335.91 0 C357.24 0, 367.91 10.67, 367.91 32 M335.91 0 C357.24 0, 367.91 10.67, 367.91 32 M367.91 32 C367.91 87.18, 367.91 142.35, 367.91 185.48 M367.91 32 C367.91 76.95, 367.91 121.91, 367.91 185.48 M367.91 185.48 C367.91 206.82, 357.24 217.48, 335.91 217.48 M367.91 185.48 C367.91 206.82, 357.24 217.48, 335.91 217.48 M335.91 217.48 C229.7 217.48, 123.49 217.48, 32 217.48 M335.91 217.48 C263.74 217.48, 191.57 217.48, 32 217.48 M32 217.48 C10.67 217.48, 0 206.82, 0 185.48 M32 217.48 C10.67 217.48, 0 206.82, 0 185.48 M0 185.48 C0 134.75, 0 84.01, 0 32 M0 185.48 C0 140.43, 0 95.38, 0 32 M0 32 C0 10.67, 10.67 0, 32 0 M0 32 C0 10.67, 10.67 0, 32 0" stroke="#000000" stroke-width="1" fill="none"></path></g><g transform="translate(316.87615548872327 347.3250327627641) rotate(0 82.5 12)"><text x="0" y="19" font-family="Cascadia, Segoe UI Emoji" font-size="20px" fill="#000000" text-anchor="start" style="white-space: pre;" direction="ltr">rateboat-store</text></g><g transform="translate(342.5227445798928 375.0037466616329) rotate(0 58.5 12.5)"><text x="0" y="18" font-family="Virgil, Segoe UI Emoji" font-size="20px" fill="#000000" text-anchor="start" style="white-space: pre;" direction="ltr">rate limiting</text></g><g stroke-linecap="round" transform="translate(286.73583683487004 441.84001828918724) rotate(0 124.7463911996507 42.19469543524775)"><path d="M21.1 0 M21.1 0 C95.27 0, 169.43 0, 228.4 0 M21.1 0 C77.16 0, 133.23 0, 228.4 0 M228.4 0 C242.46 0, 249.49 7.03, 249.49 21.1 M228.4 0 C242.46 0, 249.49 7.03, 249.49 21.1 M249.49 21.1 C249.49 34.73, 249.49 48.37, 249.49 63.29 M249.49 21.1 C249.49 32.02, 249.49 42.94, 249.49 63.29 M249.49 63.29 C249.49 77.36, 242.46 84.39, 228.4 84.39 M249.49 63.29 C249.49 77.36, 242.46 84.39, 228.4 84.39 M228.4 84.39 C164.22 84.39, 100.05 84.39, 21.1 84.39 M228.4 84.39 C159.13 84.39, 89.86 84.39, 21.1 84.39 M21.1 84.39 C7.03 84.39, 0 77.36, 0 63.29 M21.1 84.39 C7.03 84.39, 0 77.36, 0 63.29 M0 63.29 C0 54.7, 0 46.1, 0 21.1 M0 63.29 C0 51.2, 0 39.1, 0 21.1 M0 21.1 C0 7.03, 7.03 0, 21.1 0 M0 21.1 C0 7.03, 7.03 0, 21.1 0" stroke="#000000" stroke-width="1" fill="none"></path></g><g stroke-linecap="round"><g transform="translate(404.70483647419724 402.64447802678353) rotate(0 -0.1421011788907549 16.49162699195307)"><path d="M0 0 C-0.05 5.5, -0.24 27.49, -0.28 32.98 M0 0 C-0.05 5.5, -0.24 27.49, -0.28 32.98" stroke="#000000" stroke-width="1" fill="none"></path></g><g transform="translate(404.70483647419724 402.64447802678353) rotate(0 -0.1421011788907549 16.49162699195307)"><path d="M-5.79 17.44 C-4.21 21.9, -2.63 26.37, -0.28 32.98 M-5.79 17.44 C-4.43 21.27, -3.07 25.11, -0.28 32.98" stroke="#000000" stroke-width="1" fill="none"></path></g><g transform="translate(404.70483647419724 402.64447802678353) rotate(0 -0.1421011788907549 16.49162699195307)"><path d="M5.49 17.53 C3.83 21.97, 2.17 26.41, -0.28 32.98 M5.49 17.53 C4.07 21.35, 2.64 25.16, -0.28 32.98" stroke="#000000" stroke-width="1" fill="none"></path></g></g><mask></mask><g transform="translate(309.78650804585175 461.5807136311122) rotate(0 100 12)"><text x="0" y="19" font-family="Cascadia, Segoe UI Emoji" font-size="20px" fill="#000000" text-anchor="start" style="white-space: pre;" direction="ltr">rateboat-internal</text></g><g transform="translate(360.6995531846683 486.6155722373841) rotate(0 49 12.5)"><text x="0" y="18" font-family="Virgil, Segoe UI Emoji" font-size="20px" fill="#000000" text-anchor="start" style="white-space: pre;" direction="ltr">algorithms</text></g><g stroke-linecap="round" transform="translate(10 165.88857002891353) rotate(0 117.26155090332031 50)"><path d="M25 0 M25 0 C68.56 0, 112.13 0, 209.52 0 M25 0 C85.38 0, 145.75 0, 209.52 0 M209.52 0 C226.19 0, 234.52 8.33, 234.52 25 M209.52 0 C226.19 0, 234.52 8.33, 234.52 25 M234.52 25 C234.52 41.55, 234.52 58.11, 234.52 75 M234.52 25 C234.52 38.46, 234.52 51.93, 234.52 75 M234.52 75 C234.52 91.67, 226.19 100, 209.52 100 M234.52 75 C234.52 91.67, 226.19 100, 209.52 100 M209.52 100 C146.12 100, 82.71 100, 25 100 M209.52 100 C161.7 100, 113.87 100, 25 100 M25 100 C8.33 100, 0 91.67, 0 75 M25 100 C8.33 100, 0 91.67, 0 75 M0 75 C0 61.87, 0 48.74, 0 25 M0 75 C0 61.3, 0 47.61, 0 25 M0 25 C0 8.33, 8.33 0, 25 0 M0 25 C0 8.33, 8.33 0, 25 0" stroke="#000000" stroke-width="1" fill="none"></path></g><g transform="translate(73.73363759433778 186.874415474854) rotate(0 53 12)"><text x="0" y="19" font-family="Cascadia, Segoe UI Emoji" font-size="20px" fill="#000000" text-anchor="start" style="white-space: pre;" direction="ltr">SSE route</text></g><g transform="translate(39.21522341989919 219.7546160709373) rotate(0 92.5 12.5)"><text x="0" y="18" font-family="Virgil, Segoe UI Emoji" font-size="20px" fill="#000000" text-anchor="start" style="white-space: pre;" direction="ltr">from rateboat-web</text></g><g stroke-linecap="round"><g transform="translate(282.7876112461805 437.4927775357643) rotate(0 -54.472306497701965 -78.42837095302326)"><path d="M0 0 C-18.16 -26.14, -90.79 -130.71, -108.94 -156.86 M0 0 C-18.16 -26.14, -90.79 -130.71, -108.94 -156.86" stroke="#000000" stroke-width="1" fill="none"></path></g><g transform="translate(282.7876112461805 437.4927775357643) rotate(0 -54.472306497701965 -78.42837095302326)"><path d="M-84.44 -139.56 C-90.99 -144.18, -97.55 -148.81, -108.94 -156.86 M-84.44 -139.56 C-91.88 -144.81, -99.33 -150.07, -108.94 -156.86" stroke="#000000" stroke-width="1" fill="none"></path></g><g transform="translate(282.7876112461805 437.4927775357643) rotate(0 -54.472306497701965 -78.42837095302326)"><path d="M-101.29 -127.85 C-103.34 -135.61, -105.39 -143.37, -108.94 -156.86 M-101.29 -127.85 C-103.62 -136.66, -105.94 -145.48, -108.94 -156.86" stroke="#000000" stroke-width="1" fill="none"></path></g></g><mask></mask><g stroke-linecap="round"><g transform="translate(250.30300202041155 215.21852863237672) rotate(0 16.83105310780701 0.42150480943300295)"><path d="M0 0 C5.61 0.14, 28.05 0.7, 33.66 0.84 M0 0 C5.61 0.14, 28.05 0.7, 33.66 0.84" stroke="#000000" stroke-width="1" fill="none"></path></g><g transform="translate(250.30300202041155 215.21852863237672) rotate(0 16.83105310780701 0.42150480943300295)"><path d="M17.7 6.2 C23.76 4.17, 29.82 2.13, 33.66 0.84 M17.7 6.2 C23.17 4.37, 28.64 2.53, 33.66 0.84" stroke="#000000" stroke-width="1" fill="none"></path></g><g transform="translate(250.30300202041155 215.21852863237672) rotate(0 16.83105310780701 0.42150480943300295)"><path d="M17.99 -5.31 C23.94 -2.97, 29.89 -0.64, 33.66 0.84 M17.99 -5.31 C23.36 -3.2, 28.73 -1.09, 33.66 0.84" stroke="#000000" stroke-width="1" fill="none"></path></g></g><mask></mask><g stroke-linecap="round" transform="translate(588.7896471682055 166.97501963749937) rotate(0 117.26155090332037 50)"><path d="M25 0 M25 0 C73.14 0, 121.28 0, 209.52 0 M25 0 C70.33 0, 115.66 0, 209.52 0 M209.52 0 C226.19 0, 234.52 8.33, 234.52 25 M209.52 0 C226.19 0, 234.52 8.33, 234.52 25 M234.52 25 C234.52 44.39, 234.52 63.77, 234.52 75 M234.52 25 C234.52 35.51, 234.52 46.01, 234.52 75 M234.52 75 C234.52 91.67, 226.19 100, 209.52 100 M234.52 75 C234.52 91.67, 226.19 100, 209.52 100 M209.52 100 C152.76 100, 95.99 100, 25 100 M209.52 100 C170.57 100, 131.63 100, 25 100 M25 100 C8.33 100, 0 91.67, 0 75 M25 100 C8.33 100, 0 91.67, 0 75 M0 75 C0 57.79, 0 40.57, 0 25 M0 75 C0 55.21, 0 35.42, 0 25 M0 25 C0 8.33, 8.33 0, 25 0 M0 25 C0 8.33, 8.33 0, 25 0" stroke="#000000" stroke-width="1" fill="none"></path></g><g transform="translate(652.5232847625433 187.9608650834399) rotate(0 47.49999999999994 12)"><text x="0" y="19" font-family="Cascadia, Segoe UI Emoji" font-size="20px" fill="#000000" text-anchor="start" style="white-space: pre;" direction="ltr">database</text></g><g transform="translate(612.9985555694967 221.35220688626356) rotate(0 97.50000000000006 12.5)"><text x="0" y="18" font-family="Virgil, Segoe UI Emoji" font-size="20px" fill="#000000" text-anchor="start" style="white-space: pre;" direction="ltr">Firebase/RedisJSON</text></g><g stroke-linecap="round"><g transform="translate(540.3361452891693 445.1244423229432) rotate(0 53.23702564529526 -81.82813239922567)"><path d="M0 0 C17.75 -27.28, 88.73 -136.38, 106.47 -163.66 M0 0 C17.75 -27.28, 88.73 -136.38, 106.47 -163.66" stroke="#000000" stroke-width="1" fill="none"></path></g><g transform="translate(540.3361452891693 445.1244423229432) rotate(0 53.23702564529526 -81.82813239922567)"><path d="M99.7 -134.43 C101.83 -143.6, 103.95 -152.77, 106.47 -163.66 M99.7 -134.43 C101.42 -141.85, 103.14 -149.27, 106.47 -163.66" stroke="#000000" stroke-width="1" fill="none"></path></g><g transform="translate(540.3361452891693 445.1244423229432) rotate(0 53.23702564529526 -81.82813239922567)"><path d="M82.5 -145.62 C90.02 -151.28, 97.55 -156.94, 106.47 -163.66 M82.5 -145.62 C88.59 -150.2, 94.67 -154.78, 106.47 -163.66" stroke="#000000" stroke-width="1" fill="none"></path></g></g><mask></mask><g stroke-linecap="round"><g transform="translate(582.0247401641191 219.34317135494848) rotate(0 -22.618079566144445 0.0335897096929898)"><path d="M0 0 C-7.54 0.01, -37.7 0.06, -45.24 0.07 M0 0 C-7.54 0.01, -37.7 0.06, -45.24 0.07" stroke="#000000" stroke-width="1" fill="none"></path></g><g transform="translate(582.0247401641191 219.34317135494848) rotate(0 -22.618079566144445 0.0335897096929898)"><path d="M-23.99 -7.7 C-31.16 -5.08, -38.33 -2.46, -45.24 0.07 M-23.99 -7.7 C-31.7 -4.88, -39.41 -2.06, -45.24 0.07" stroke="#000000" stroke-width="1" fill="none"></path></g><g transform="translate(582.0247401641191 219.34317135494848) rotate(0 -22.618079566144445 0.0335897096929898)"><path d="M-23.97 7.77 C-31.15 5.17, -38.32 2.57, -45.24 0.07 M-23.97 7.77 C-31.69 4.98, -39.41 2.18, -45.24 0.07" stroke="#000000" stroke-width="1" fill="none"></path></g></g><mask></mask><g stroke-linecap="round" transform="translate(293.0658392384811 597.4188726617945) rotate(0 117.26155090332037 32.75144636492166)"><path d="M16.38 0 M16.38 0 C79 0, 141.62 0, 218.15 0 M16.38 0 C65.58 0, 114.78 0, 218.15 0 M218.15 0 C229.06 0, 234.52 5.46, 234.52 16.38 M218.15 0 C229.06 0, 234.52 5.46, 234.52 16.38 M234.52 16.38 C234.52 23.77, 234.52 31.17, 234.52 49.13 M234.52 16.38 C234.52 25.92, 234.52 35.46, 234.52 49.13 M234.52 49.13 C234.52 60.04, 229.06 65.5, 218.15 65.5 M234.52 49.13 C234.52 60.04, 229.06 65.5, 218.15 65.5 M218.15 65.5 C137.72 65.5, 57.29 65.5, 16.38 65.5 M218.15 65.5 C139.02 65.5, 59.88 65.5, 16.38 65.5 M16.38 65.5 C5.46 65.5, 0 60.04, 0 49.13 M16.38 65.5 C5.46 65.5, 0 60.04, 0 49.13 M0 49.13 C0 41.23, 0 33.34, 0 16.38 M0 49.13 C0 40.9, 0 32.66, 0 16.38 M0 16.38 C0 5.46, 5.46 0, 16.38 0 M0 16.38 C0 5.46, 5.46 0, 16.38 0" stroke="#000000" stroke-width="1" fill="none"></path></g><g transform="translate(343.2334829324551 618.388241027759) rotate(0 71 12)"><text x="0" y="19" font-family="Cascadia, Segoe UI Emoji" font-size="20px" fill="#000000" text-anchor="start" style="white-space: pre;" direction="ltr">auto-indexer</text></g><g stroke-linecap="round"><g transform="translate(408.67481672664985 593.6179476396728) rotate(0 -0.4013211036303801 -28.724584238014984)"><path d="M0 0 C-0.13 -9.57, -0.67 -47.87, -0.8 -57.45 M0 0 C-0.13 -9.57, -0.67 -47.87, -0.8 -57.45" stroke="#000000" stroke-width="1" fill="none"></path></g><g transform="translate(408.67481672664985 593.6179476396728) rotate(0 -0.4013211036303801 -28.724584238014984)"><path d="M9.4 -30.59 C6.26 -38.86, 3.12 -47.12, -0.8 -57.45 M9.4 -30.59 C6.39 -38.51, 3.38 -46.43, -0.8 -57.45" stroke="#000000" stroke-width="1" fill="none"></path></g><g transform="translate(408.67481672664985 593.6179476396728) rotate(0 -0.4013211036303801 -28.724584238014984)"><path d="M-10.25 -30.32 C-7.34 -38.67, -4.44 -47.01, -0.8 -57.45 M-10.25 -30.32 C-7.46 -38.32, -4.68 -46.32, -0.8 -57.45" stroke="#000000" stroke-width="1" fill="none"></path></g></g><mask></mask></svg>